<svg width="1024" height="1024" viewBox="0 0 128 128" xmlns="http://www.w3.org/2000/svg">
  <rect width="128" height="128" rx="28" fill="#2f6fb0"/>
  <path d="M28 38 Q28 28 38 28 H80 L100 48 V90 Q100 100 90 100 H38 Q28 100 28 90 Z" fill="#ffffff"/>
  <path d="M80 28 L80 44 Q80 48 84 48 L100 48 Z" fill="#cfe1f2"/>
  <circle cx="52" cy="58" r="8" fill="#2f6fb0"/>
  <path d="M38 86 L58 66 L70 78 L82 62 L92 86 Z" fill="#2f6fb0"/>
  <circle cx="92" cy="92" r="21" fill="#6a4fb0"/>
  <g transform="translate(92,92) rotate(225) scale(0.32)">
    <rect x="-45" y="-7" width="50" height="14" rx="3" fill="#ffffff"/>
    <rect x="9" y="-8" width="15" height="16" rx="3.5" fill="#ffffff"/>
  </g>
  <path d="M91.5,73 a7,7 0 0 0 7,7 a7,7 0 0 0 -7,7 a7,7 0 0 0 -7,-7 a7,7 0 0 0 7,-7 Z" fill="#ffffff"/>
  <path d="M82.5,78.4 a3.6,3.6 0 0 0 3.6,3.6 a3.6,3.6 0 0 0 -3.6,3.6 a3.6,3.6 0 0 0 -3.6,-3.6 a3.6,3.6 0 0 0 3.6,-3.6 Z" fill="#ffffff"/>
  <path d="M83.5,84.5 a3,3 0 0 0 3,3 a3,3 0 0 0 -3,3 a3,3 0 0 0 -3,-3 a3,3 0 0 0 3,-3 Z" fill="#ffffff"/>
</svg>
